<svg width="411" height="499" viewBox="0 0 411 499" fill="none" xmlns="http://www.w3.org/2000/svg">
<path d="M381.542 346.524C393.347 334.992 402.881 321.327 409.585 306.202C405.972 332.521 398.599 358.205 387.761 382.428C372.082 418.294 345.939 448.508 312.719 469.024C276.855 489.803 235.964 500.136 194.588 498.901H118.764C123.345 486.958 125.654 474.228 125.505 461.424C126.175 435.404 116.008 410.32 97.4617 392.162C78.7291 373.704 53.3302 363.746 27.1492 364.494C17.9878 364.42 8.86354 365.505 0 367.677V0.0993196H194.551C235.666 -1.09873 276.408 8.56056 312.645 28.0664C345.604 47.048 371.859 75.951 387.687 110.695C400.088 137.726 407.946 166.629 411 196.205C404.259 179.695 394.204 164.794 381.505 152.364C355.249 126.494 319.683 112.529 282.926 113.652C246.168 112.529 210.565 126.531 184.347 152.402C158.352 177.86 144.126 213.053 145.057 249.519C144.088 285.985 158.352 321.177 184.347 346.598C210.565 372.506 246.168 386.509 282.926 385.423C319.683 386.509 355.249 372.506 381.505 346.598" fill="white"/>
</svg>
